Coordinates
version=1
nRows=33
nColumns=33
inDegrees=yes

Units are S.I. units (second, meters, Newtons, ...)
Angles are in degrees.

endheader
time	ground_thorax_rot_x	ground_thorax_rot_y	ground_thorax_rot_z	ground_thorax_tx	ground_thorax_ty	ground_thorax_tz	clav_prot_r	clav_elev_r	scapula_abduction_r	scapula_elevation_r	scapula_upward_rot_r	scapula_winging_r	shoulder_elv_r	plane_of_elev_r	axial_rot_r	elbow_flexion_r	pro_sup_r	wrist_flex_r	wrist_dev_r	clav_prot_l	clav_elev_l	scapula_abduction_l	scapula_elevation_l	scapula_upward_rot_l	scapula_winging_l	shoulder_elv_l	plane_of_elev_l	axial_rot_l	elbow_flexion_l	pro_sup_l	wrist_flex_l	wrist_dev_l	
9.0500	31.960353	24.792527	31.869639	-102.259822	848.783177	-47.939744	11.786397	33.431922	23.182534	45.000000	-45.000000	633.156852	1513.261994	23.596200	180.000000	3602.274374	-177.879435	18.212339	13.884411	-6.978074	-45.000000	-39.031792	45.000000	-45.000000	5506.219987	-4048.466149	134.302885	-127.093475	2869.743920	39.258085	14.954015	-19.315425	
9.0600	31.900710	24.755329	32.006092	-101.626106	848.765480	-48.083460	11.740269	33.407905	23.218817	45.000000	-45.000000	633.191489	1513.271557	23.573613	180.000000	3602.252003	-177.580856	18.312494	13.770994	-6.959090	-45.000000	-39.036758	45.000000	-45.000000	5506.180829	-4048.449069	134.224797	-126.561862	2869.758650	39.256767	14.906583	-19.277469	
9.0700	31.819028	24.763350	32.192395	-101.008482	848.744980	-48.234930	11.691248	33.318647	23.266151	45.000000	-45.000000	633.225574	1513.284639	23.509421	180.000000	3602.255282	-177.305529	18.406698	13.628270	-6.907618	-45.000000	-39.089837	45.000000	-45.000000	5506.157192	-4048.464422	134.191260	-126.068396	2869.816387	39.261881	14.810495	-19.194560	
9.0800	31.776612	24.752113	32.295635	-100.428896	848.717323	-48.404607	11.675746	33.282814	23.297755	45.000000	-45.000000	633.243085	1513.290576	23.494929	180.000000	3602.217966	-177.038096	18.508215	13.518247	-6.891032	-45.000000	-39.108344	45.000000	-45.000000	5506.113526	-4048.446604	134.132334	-125.697338	2869.849830	39.263129	14.820474	-19.249943	
9.0900	31.753984	24.742920	32.366340	-99.868413	848.682821	-48.587381	11.671647	33.276288	23.335401	45.000000	-45.000000	633.248175	1513.295020	23.498349	180.000000	3602.170605	-176.795475	18.601571	13.425589	-6.883081	-45.000000	-39.115128	45.000000	-45.000000	5506.064179	-4048.416705	134.072985	-125.425636	2869.884756	39.268738	14.886070	-19.388580	
9.1000	31.740407	24.738900	32.424890	-99.296230	848.640711	-48.773367	11.689693	33.268178	23.378617	45.000000	-45.000000	633.248513	1513.299641	23.509425	180.000000	3602.114833	-176.592053	18.696153	13.343991	-6.874648	-45.000000	-39.122619	45.000000	-45.000000	5506.013478	-4048.381041	134.018667	-125.224838	2869.925874	39.282462	14.988545	-19.584050	
9.1100	31.733615	24.736534	32.485591	-98.676082	848.591391	-48.951829	11.709771	33.286368	23.444556	45.000000	-45.000000	633.237000	1513.302783	23.527054	180.000000	3602.058749	-176.433505	18.774168	13.279204	-6.872682	-45.000000	-39.119494	45.000000	-45.000000	5505.956147	-4048.336428	133.968398	-125.058736	2869.972983	39.306711	15.101512	-19.804521	
9.1200	31.719426	24.737117	32.572278	-97.966942	848.535225	-49.109483	11.743711	33.276224	23.527227	45.000000	-45.000000	633.231256	1513.307260	23.535611	180.000000	3602.005817	-176.332827	18.857204	13.216228	-6.861837	-45.000000	-39.124547	45.000000	-45.000000	5505.903827	-4048.295429	133.922202	-124.872825	2870.032187	39.340712	15.209414	-20.021653	
9.1300	31.704555	24.733091	32.677617	-97.141626	848.472097	-49.238932	11.775145	33.287856	23.630766	45.000000	-45.000000	633.212097	1513.309018	23.554608	180.000000	3601.944957	-176.285798	18.924406	13.169248	-6.867019	-45.000000	-39.115822	45.000000	-45.000000	5505.837882	-4048.250627	133.870656	-124.647683	2870.093339	39.382993	15.287091	-20.202786	
9.1400	31.678357	24.731818	32.812650	-96.186402	848.401344	-49.336866	11.822201	33.275972	23.743678	45.000000	-45.000000	633.196857	1513.310057	23.568651	180.000000	3601.875447	-176.297585	18.997926	13.126746	-6.875296	-45.000000	-39.107396	45.000000	-45.000000	5505.763459	-4048.204143	133.815080	-124.366351	2870.153428	39.429108	15.343915	-20.349942	
9.1500	31.646751	24.734701	32.969969	-95.106268	848.321986	-49.407691	11.862698	33.292997	23.876215	45.000000	-45.000000	633.168977	1513.305655	23.588445	180.000000	3601.797481	-176.361261	19.047792	13.100041	-6.898417	-45.000000	-39.082833	45.000000	-45.000000	5505.666843	-4048.148972	133.755777	-124.048868	2870.205987	39.477905	15.364768	-20.446367	
9.1600	31.601979	24.745167	33.151841	-93.909830	848.232448	-49.456252	11.912576	33.292918	24.015027	45.000000	-45.000000	633.155740	1513.301476	23.600022	180.000000	3601.718091	-176.481552	19.101901	13.079722	-6.914346	-45.000000	-39.061195	45.000000	-45.000000	5505.567529	-4048.086706	133.691597	-123.698685	2870.249984	39.525015	15.396552	-20.544101	
9.1700	31.545965	24.768972	33.356762	-92.603397	848.130579	-49.486586	11.945195	33.319583	24.157948	45.000000	-45.000000	633.136693	1513.296448	23.618952	180.000000	3601.628525	-176.655226	19.128142	13.073399	-6.928232	-45.000000	-39.041743	45.000000	-45.000000	5505.457616	-4048.025128	133.627833	-123.334108	2870.292453	39.574802	15.397494	-20.599473	
9.1800	31.470160	24.809000	33.586821	-91.191924	848.013887	-49.502137	11.972987	33.325997	24.294053	45.000000	-45.000000	633.134514	1513.294267	23.631562	180.000000	3601.536104	-176.890193	19.158518	13.075055	-6.924977	-45.000000	-39.044299	45.000000	-45.000000	5505.354007	-4047.962990	133.562767	-122.951806	2870.331327	39.626688	15.415768	-20.668367	
9.1900	31.384144	24.860504	33.831618	-89.678007	847.879596	-49.505916	11.978665	33.353790	24.431892	45.000000	-45.000000	633.128511	1513.287676	23.651825	180.000000	3601.429994	-177.186308	19.161066	13.090942	-6.910493	-45.000000	-39.059641	45.000000	-45.000000	5505.249667	-4047.910371	133.496397	-122.562774	2870.377464	39.687210	15.407246	-20.705573	
9.2000	31.290307	24.914010	34.082854	-88.063063	847.724710	-49.500556	11.976322	33.360243	24.577390	45.000000	-45.000000	633.131326	1513.272867	23.670928	180.000000	3601.316131	-177.555535	19.170040	13.119982	-6.881870	-45.000000	-39.099658	45.000000	-45.000000	5505.165715	-4047.870971	133.419280	-122.154158	2870.433820	39.756769	15.420193	-20.769515	
9.2100	31.197370	24.968279	34.333350	-86.347425	847.546108	-49.488379	11.957851	33.380692	24.736253	45.000000	-45.000000	633.124536	1513.246904	23.699385	180.000000	3601.183658	-177.999046	19.156226	13.170048	-6.845168	-45.000000	-39.147815	45.000000	-45.000000	5505.088165	-4047.849178	133.332348	-121.737647	2870.507206	39.844087	15.413491	-20.817655	
9.2200	31.098712	25.025898	34.589938	-84.531323	847.340790	-49.471254	11.943956	33.385657	24.912885	45.000000	-45.000000	633.118695	1513.208402	23.725878	180.000000	3601.047619	-178.524038	19.142465	13.242030	-6.805766	-45.000000	-39.204156	45.000000	-45.000000	5505.017937	-4047.830996	133.237764	-121.309319	2870.585214	39.952960	15.424051	-20.888375	
9.2300	30.995239	25.091146	34.857062	-82.614916	847.106195	-49.450619	11.940089	33.404022	25.109581	45.000000	-45.000000	633.106326	1513.155368	23.753321	180.000000	3600.907654	-179.126507	19.101824	13.333642	-6.770790	-45.000000	-39.251475	45.000000	-45.000000	5504.938247	-4047.810615	133.144445	-120.876603	2870.666122	40.089516	15.420770	-20.943509	
9.2400	30.892330	25.156225	35.127985	-80.598477	846.840516	-49.427533	11.971346	33.426665	25.330814	45.000000	-45.000000	633.087653	1513.086397	23.789648	180.000000	3600.774685	-179.813576	19.049257	13.443975	-6.758297	-45.000000	-39.278280	45.000000	-45.000000	5504.851622	-4047.775409	133.044626	-120.427341	2870.738648	40.255620	15.432058	-21.009095	
9.2500	30.789235	25.228641	35.405623	-78.482322	846.542886	-49.402875	12.039135	33.472196	25.564750	45.000000	-45.000000	633.061258	1513.007557	23.838651	180.000000	3600.644157	-180.582820	18.965001	13.570534	-6.770488	-45.000000	-39.277434	45.000000	-45.000000	5504.743967	-4047.723627	132.945327	-119.966477	2870.801962	40.454177	15.434202	-21.055768	
9.2600	30.686148	25.307280	35.687521	-76.267142	846.213379	-49.377502	12.141241	33.529229	25.808914	45.000000	-45.000000	633.031572	1512.920771	23.899878	180.000000	3600.519875	-181.428883	18.859007	13.711382	-6.808195	-45.000000	-39.253411	45.000000	-45.000000	5504.619715	-4047.654853	132.842430	-119.492989	2870.851474	40.682719	15.443763	-21.097528	
9.2700	30.579211	25.398077	35.979878	-73.954287	845.852785	-49.352330	12.257256	33.599519	26.054828	45.000000	-45.000000	633.006555	1512.831869	23.963658	180.000000	3600.394135	-182.331151	18.721058	13.863074	-6.853705	-45.000000	-39.216988	45.000000	-45.000000	5504.478158	-4047.578749	132.745414	-119.015852	2870.895082	40.937148	15.442360	-21.114067	
9.2800	30.475133	25.492750	36.272369	-71.545874	845.462283	-49.328175	12.375232	33.670991	26.307421	45.000000	-45.000000	632.986861	1512.739333	24.030349	180.000000	3600.264408	-183.269974	18.562943	14.023545	-6.901725	-45.000000	-39.176059	45.000000	-45.000000	5504.331265	-4047.503281	132.645982	-118.534545	2870.935828	41.212562	15.442131	-21.118404	
9.2900	30.364835	25.602017	36.574772	-69.044552	845.043050	-49.305450	12.475410	33.729331	26.552701	45.000000	-45.000000	632.984050	1512.650623	24.087944	180.000000	3600.127727	-184.217229	18.387638	14.188743	-6.934103	-45.000000	-39.146595	45.000000	-45.000000	5504.179561	-4047.435317	132.553846	-118.058027	2870.979256	41.504872	15.439585	-21.108769	
9.3000	30.250619	25.726370	36.884540	-66.453525	844.596027	-49.283770	12.550618	33.772210	26.789026	45.000000	-45.000000	632.997768	1512.568800	24.136669	180.000000	3599.985193	-185.145338	18.198512	14.353470	-6.946595	-45.000000	-39.130699	45.000000	-45.000000	5504.026241	-4047.378311	132.464135	-117.592274	2871.024698	41.811435	15.436337	-21.084787	
9.3100	30.131545	25.865574	37.204517	-63.776003	844.121694	-49.261671	12.612333	33.804371	27.021098	45.000000	-44.999999	633.027310	1512.490479	24.173473	180.000000	3599.838749	-186.036466	17.997595	14.514069	-6.952606	-45.000000	-39.123533	45.000000	-45.000000	5503.867188	-4047.327982	132.383837	-117.130262	2871.071015	42.131378	15.430455	-21.044241	
9.3200	30.017713	26.012482	37.524313	-61.015308	843.620106	-49.236557	12.672827	33.835781	27.258446	45.000000	-44.999999	633.061740	1512.412118	24.208659	180.000000	3599.693387	-186.880363	17.785036	14.668150	-6.962035	-45.000000	-39.113566	45.000000	-45.000000	5503.703032	-4047.282083	132.303039	-116.670659	2871.111598	42.464666	15.424395	-20.986949	
9.3300	29.905705	26.170140	37.849191	-58.174382	843.090840	-49.205002	12.741293	33.871818	27.501797	45.000000	-44.999998	633.099893	1512.329892	24.239072	180.000000	3599.551892	-187.670125	17.561619	14.814390	-6.986477	-45.000000	-39.097208	45.000000	-45.000000	5503.530586	-4047.238376	132.228649	-116.208137	2871.146647	42.808728	15.416253	-20.912065	
9.3400	29.795809	26.339532	38.177860	-55.255957	842.533105	-49.163298	12.814858	33.911911	27.748940	45.000000	-44.999996	633.141488	1512.246052	24.265053	180.000000	3599.416757	-188.394330	17.328105	14.952311	-7.024279	-45.000000	-39.076830	45.000000	-45.000000	5503.351140	-4047.198927	132.158234	-115.749317	2871.173694	43.159285	15.406848	-20.819075	
9.3500	29.685178	26.519374	38.514026	-52.262505	841.945747	-49.108124	12.897082	33.958755	27.996953	45.000000	-44.999992	633.187259	1512.159287	24.288927	180.000000	3599.286838	-189.042632	17.087161	15.080336	-7.077977	-45.000000	-39.048204	45.000000	-45.000000	5503.164967	-4047.162873	132.097305	-115.294417	2871.192760	43.511394	15.394805	-20.707682	
9.3600	29.574022	26.709401	38.855597	-49.196738	841.327474	-49.037065	12.973736	34.007443	28.238514	45.000000	-44.999986	633.238776	1512.074541	24.314793	180.000000	3599.162999	-189.599470	16.841178	15.196630	-7.132641	-45.000000	-39.016041	45.000000	-45.000000	5502.977975	-4047.134585	132.039447	-114.856379	2871.201656	43.859053	15.381854	-20.578496	
9.3700	29.460103	26.909619	39.204325	-46.061469	840.676788	-48.949005	13.044010	34.056167	28.470385	45.000000	-44.999975	633.298152	1511.991977	24.341463	180.000000	3599.044557	-190.050602	16.593607	15.298973	-7.188732	-45.000000	-38.978871	45.000000	-45.000000	5502.791231	-4047.115809	131.986391	-114.435686	2871.202028	44.196984	15.366396	-20.431487	
